<mxfile host="app.diagrams.net" modified="2022-12-12T08:34:16.784Z" agent="5.0 (Windows NT 10.0; WOW64) AppleWebKit/537.36 (KHTML, like Gecko) Chrome/103.0.0.0 Safari/537.36" version="20.6.2" etag="HOuuILNWBalBHT-DZJPM" type="github" pages="5">
  <diagram id="yu-dqQg2ILVOB0d_rVwu" name="流程说明">
    <mxGraphModel dx="1887" dy="1229" grid="1" gridSize="10" guides="1" tooltips="1" connect="1" arrows="1" fold="1" page="1" pageScale="1" pageWidth="827" pageHeight="1169" math="0" shadow="0">
      <root>
        <mxCell id="0" />
        <mxCell id="1" parent="0" />
        <mxCell id="gupVtkErY-x4jR-GN4kC-15" value="" style="group" vertex="1" connectable="0" parent="1">
          <mxGeometry x="470" y="390" width="210" height="550" as="geometry" />
        </mxCell>
        <mxCell id="gupVtkErY-x4jR-GN4kC-1" value="商户数据" style="rounded=0;whiteSpace=wrap;html=1;fontSize=20;fillColor=#ffe6cc;strokeColor=#d79b00;" vertex="1" parent="gupVtkErY-x4jR-GN4kC-15">
          <mxGeometry width="210" height="50" as="geometry" />
        </mxCell>
        <mxCell id="gupVtkErY-x4jR-GN4kC-2" value="商户数据有效期" style="rounded=0;whiteSpace=wrap;html=1;fontSize=20;fillColor=#ffe6cc;strokeColor=#d79b00;" vertex="1" parent="gupVtkErY-x4jR-GN4kC-15">
          <mxGeometry y="50" width="210" height="50" as="geometry" />
        </mxCell>
        <mxCell id="gupVtkErY-x4jR-GN4kC-3" value="商户数据签名" style="rounded=0;whiteSpace=wrap;html=1;fontSize=20;fillColor=#ffe6cc;strokeColor=#d79b00;" vertex="1" parent="gupVtkErY-x4jR-GN4kC-15">
          <mxGeometry y="100" width="210" height="50" as="geometry" />
        </mxCell>
        <mxCell id="gupVtkErY-x4jR-GN4kC-5" value="腾讯数据" style="rounded=0;whiteSpace=wrap;html=1;fontSize=20;fillColor=#d5e8d4;strokeColor=#82b366;" vertex="1" parent="gupVtkErY-x4jR-GN4kC-15">
          <mxGeometry y="150" width="210" height="50" as="geometry" />
        </mxCell>
        <mxCell id="gupVtkErY-x4jR-GN4kC-6" value="腾讯数据有效期" style="rounded=0;whiteSpace=wrap;html=1;fontSize=20;fillColor=#d5e8d4;strokeColor=#82b366;" vertex="1" parent="gupVtkErY-x4jR-GN4kC-15">
          <mxGeometry y="300" width="210" height="50" as="geometry" />
        </mxCell>
        <mxCell id="gupVtkErY-x4jR-GN4kC-7" value="腾讯数据签名" style="rounded=0;whiteSpace=wrap;html=1;fontSize=20;fillColor=#d5e8d4;strokeColor=#82b366;" vertex="1" parent="gupVtkErY-x4jR-GN4kC-15">
          <mxGeometry y="350" width="210" height="50" as="geometry" />
        </mxCell>
        <mxCell id="gupVtkErY-x4jR-GN4kC-8" value="用户公钥" style="rounded=0;whiteSpace=wrap;html=1;fontSize=20;fillColor=#d5e8d4;strokeColor=#82b366;" vertex="1" parent="gupVtkErY-x4jR-GN4kC-15">
          <mxGeometry y="200" width="210" height="50" as="geometry" />
        </mxCell>
        <mxCell id="gupVtkErY-x4jR-GN4kC-11" value="用户数据有效时长" style="rounded=0;whiteSpace=wrap;html=1;fontSize=20;fillColor=#d5e8d4;strokeColor=#82b366;" vertex="1" parent="gupVtkErY-x4jR-GN4kC-15">
          <mxGeometry y="250" width="210" height="50" as="geometry" />
        </mxCell>
        <mxCell id="gupVtkErY-x4jR-GN4kC-12" value="用户数据" style="rounded=0;whiteSpace=wrap;html=1;fontSize=20;fillColor=#dae8fc;strokeColor=#6c8ebf;" vertex="1" parent="gupVtkErY-x4jR-GN4kC-15">
          <mxGeometry y="400" width="210" height="50" as="geometry" />
        </mxCell>
        <mxCell id="gupVtkErY-x4jR-GN4kC-13" value="二维码生成时间" style="rounded=0;whiteSpace=wrap;html=1;fontSize=20;fillColor=#dae8fc;strokeColor=#6c8ebf;" vertex="1" parent="gupVtkErY-x4jR-GN4kC-15">
          <mxGeometry y="450" width="210" height="50" as="geometry" />
        </mxCell>
        <mxCell id="gupVtkErY-x4jR-GN4kC-14" value="用户签名" style="rounded=0;whiteSpace=wrap;html=1;fontSize=20;fillColor=#dae8fc;strokeColor=#6c8ebf;" vertex="1" parent="gupVtkErY-x4jR-GN4kC-15">
          <mxGeometry y="500" width="210" height="50" as="geometry" />
        </mxCell>
        <mxCell id="gupVtkErY-x4jR-GN4kC-16" value="二维码结构(概要)" style="text;html=1;strokeColor=none;fillColor=none;align=left;verticalAlign=middle;whiteSpace=wrap;rounded=0;fontSize=25;fontStyle=1" vertex="1" parent="1">
          <mxGeometry x="470" y="340" width="200" height="30" as="geometry" />
        </mxCell>
        <mxCell id="gupVtkErY-x4jR-GN4kC-18" value="乘车码后台" style="rounded=0;whiteSpace=wrap;html=1;fontSize=25;fillColor=#d5e8d4;strokeColor=#82b366;" vertex="1" parent="1">
          <mxGeometry x="180" y="190" width="200" height="70" as="geometry" />
        </mxCell>
        <mxCell id="gupVtkErY-x4jR-GN4kC-19" value="用户" style="rounded=0;whiteSpace=wrap;html=1;fontSize=25;fillColor=#dae8fc;strokeColor=#6c8ebf;" vertex="1" parent="1">
          <mxGeometry x="180" y="980" width="200" height="80" as="geometry" />
        </mxCell>
        <mxCell id="gupVtkErY-x4jR-GN4kC-20" value="商户闸机" style="rounded=0;whiteSpace=wrap;html=1;fontSize=25;fillColor=#ffe6cc;strokeColor=#d79b00;" vertex="1" parent="1">
          <mxGeometry x="850" y="980" width="200" height="80" as="geometry" />
        </mxCell>
        <mxCell id="gupVtkErY-x4jR-GN4kC-21" value="商户后台" style="rounded=0;whiteSpace=wrap;html=1;fontSize=25;fillColor=#ffe6cc;strokeColor=#d79b00;" vertex="1" parent="1">
          <mxGeometry x="840" y="190" width="200" height="70" as="geometry" />
        </mxCell>
        <mxCell id="gupVtkErY-x4jR-GN4kC-22" value="" style="endArrow=classic;html=1;rounded=0;strokeColor=#6c8ebf;strokeWidth=5;fontSize=25;exitX=0.5;exitY=0;exitDx=0;exitDy=0;entryX=0.5;entryY=1;entryDx=0;entryDy=0;fillColor=#dae8fc;" edge="1" parent="1" source="gupVtkErY-x4jR-GN4kC-19" target="gupVtkErY-x4jR-GN4kC-18">
          <mxGeometry width="50" height="50" relative="1" as="geometry">
            <mxPoint x="1140" y="840" as="sourcePoint" />
            <mxPoint x="1190" y="790" as="targetPoint" />
          </mxGeometry>
        </mxCell>
        <mxCell id="gupVtkErY-x4jR-GN4kC-23" value="" style="endArrow=classic;html=1;rounded=0;strokeColor=#6c8ebf;strokeWidth=5;fontSize=25;exitX=1;exitY=0.5;exitDx=0;exitDy=0;entryX=0;entryY=0.5;entryDx=0;entryDy=0;fillColor=#dae8fc;" edge="1" parent="1" source="gupVtkErY-x4jR-GN4kC-19" target="gupVtkErY-x4jR-GN4kC-20">
          <mxGeometry width="50" height="50" relative="1" as="geometry">
            <mxPoint x="590" y="1080" as="sourcePoint" />
            <mxPoint x="640" y="1030" as="targetPoint" />
          </mxGeometry>
        </mxCell>
        <mxCell id="gupVtkErY-x4jR-GN4kC-24" value="" style="endArrow=classic;html=1;rounded=0;strokeColor=#d6b656;strokeWidth=5;fontSize=25;exitX=0.25;exitY=0;exitDx=0;exitDy=0;entryX=0.25;entryY=1;entryDx=0;entryDy=0;fillColor=#fff2cc;" edge="1" parent="1" source="gupVtkErY-x4jR-GN4kC-20" target="gupVtkErY-x4jR-GN4kC-21">
          <mxGeometry width="50" height="50" relative="1" as="geometry">
            <mxPoint x="930" y="920" as="sourcePoint" />
            <mxPoint x="980" y="870" as="targetPoint" />
          </mxGeometry>
        </mxCell>
        <mxCell id="gupVtkErY-x4jR-GN4kC-25" value="" style="endArrow=classic;html=1;rounded=0;strokeColor=#d6b656;strokeWidth=5;fontSize=25;entryX=1;entryY=0.75;entryDx=0;entryDy=0;exitX=0;exitY=0.75;exitDx=0;exitDy=0;fillColor=#fff2cc;" edge="1" parent="1" source="gupVtkErY-x4jR-GN4kC-21" target="gupVtkErY-x4jR-GN4kC-18">
          <mxGeometry width="50" height="50" relative="1" as="geometry">
            <mxPoint x="1100" y="540" as="sourcePoint" />
            <mxPoint x="1150" y="490" as="targetPoint" />
          </mxGeometry>
        </mxCell>
        <mxCell id="gupVtkErY-x4jR-GN4kC-26" value="" style="endArrow=classic;html=1;rounded=0;strokeColor=#82b366;strokeWidth=5;fontSize=25;exitX=1;exitY=0.25;exitDx=0;exitDy=0;entryX=0;entryY=0.25;entryDx=0;entryDy=0;fillColor=#d5e8d4;" edge="1" parent="1" source="gupVtkErY-x4jR-GN4kC-18" target="gupVtkErY-x4jR-GN4kC-21">
          <mxGeometry width="50" height="50" relative="1" as="geometry">
            <mxPoint x="400" y="360" as="sourcePoint" />
            <mxPoint x="450" y="310" as="targetPoint" />
          </mxGeometry>
        </mxCell>
        <mxCell id="gupVtkErY-x4jR-GN4kC-27" value="" style="endArrow=classic;html=1;rounded=0;strokeColor=#d79b00;strokeWidth=5;fontSize=25;exitX=0.75;exitY=1;exitDx=0;exitDy=0;fillColor=#ffe6cc;entryX=0.75;entryY=0;entryDx=0;entryDy=0;" edge="1" parent="1" source="gupVtkErY-x4jR-GN4kC-21" target="gupVtkErY-x4jR-GN4kC-20">
          <mxGeometry width="50" height="50" relative="1" as="geometry">
            <mxPoint x="1010" y="750" as="sourcePoint" />
            <mxPoint x="940" y="980" as="targetPoint" />
          </mxGeometry>
        </mxCell>
        <mxCell id="gupVtkErY-x4jR-GN4kC-28" value="1.1请求开通" style="text;html=1;strokeColor=none;fillColor=none;align=center;verticalAlign=middle;whiteSpace=wrap;rounded=0;fontSize=25;" vertex="1" parent="1">
          <mxGeometry x="190" y="590" width="50" height="160" as="geometry" />
        </mxCell>
        <mxCell id="gupVtkErY-x4jR-GN4kC-29" value="2.1请求开通" style="text;html=1;strokeColor=none;fillColor=none;align=center;verticalAlign=middle;whiteSpace=wrap;rounded=0;fontSize=25;" vertex="1" parent="1">
          <mxGeometry x="300" y="590" width="50" height="160" as="geometry" />
        </mxCell>
        <mxCell id="gupVtkErY-x4jR-GN4kC-30" value="2.2 商户侧拉码" style="text;html=1;strokeColor=none;fillColor=none;align=center;verticalAlign=middle;whiteSpace=wrap;rounded=0;fontSize=25;" vertex="1" parent="1">
          <mxGeometry x="430" y="170" width="240" height="40" as="geometry" />
        </mxCell>
        <mxCell id="gupVtkErY-x4jR-GN4kC-31" value="1.2 商户侧开通" style="text;html=1;strokeColor=none;fillColor=none;align=center;verticalAlign=middle;whiteSpace=wrap;rounded=0;fontSize=25;" vertex="1" parent="1">
          <mxGeometry x="430" y="130" width="240" height="40" as="geometry" />
        </mxCell>
        <mxCell id="s6BjZw7QCWQ93VPxm_vX-1" value="3.1 用户扫码" style="text;html=1;strokeColor=none;fillColor=none;align=center;verticalAlign=middle;whiteSpace=wrap;rounded=0;fontSize=25;" vertex="1" parent="1">
          <mxGeometry x="480" y="1030" width="240" height="40" as="geometry" />
        </mxCell>
        <mxCell id="s6BjZw7QCWQ93VPxm_vX-3" value="4.1 上传交易" style="text;html=1;strokeColor=none;fillColor=none;align=center;verticalAlign=middle;whiteSpace=wrap;rounded=0;fontSize=25;" vertex="1" parent="1">
          <mxGeometry x="840" y="620" width="50" height="180" as="geometry" />
        </mxCell>
        <mxCell id="s6BjZw7QCWQ93VPxm_vX-4" value="4.2 请求扣费" style="text;html=1;strokeColor=none;fillColor=none;align=center;verticalAlign=middle;whiteSpace=wrap;rounded=0;fontSize=25;" vertex="1" parent="1">
          <mxGeometry x="450" y="260" width="220" height="30" as="geometry" />
        </mxCell>
      </root>
    </mxGraphModel>
  </diagram>
  <diagram id="G4YbkNKK7T9ojeRpeivn" name="架构图">
    <mxGraphModel dx="1483" dy="966" grid="1" gridSize="10" guides="1" tooltips="1" connect="1" arrows="1" fold="1" page="1" pageScale="1" pageWidth="827" pageHeight="1169" math="0" shadow="0">
      <root>
        <mxCell id="0" />
        <mxCell id="1" parent="0" />
        <mxCell id="M0PuQdPBtQ2sDzGUFWcR-45" value="" style="group" vertex="1" connectable="0" parent="1">
          <mxGeometry x="44" y="180" width="340" height="450" as="geometry" />
        </mxCell>
        <mxCell id="M0PuQdPBtQ2sDzGUFWcR-25" value="" style="rounded=1;whiteSpace=wrap;html=1;" vertex="1" parent="M0PuQdPBtQ2sDzGUFWcR-45">
          <mxGeometry y="190" width="340" height="100" as="geometry" />
        </mxCell>
        <mxCell id="M0PuQdPBtQ2sDzGUFWcR-2" value="业务逻辑层&lt;br&gt;trpc-cpp&lt;br&gt;&lt;br&gt;" style="rounded=0;whiteSpace=wrap;html=1;" vertex="1" parent="M0PuQdPBtQ2sDzGUFWcR-45">
          <mxGeometry x="20" y="210" width="120" height="60" as="geometry" />
        </mxCell>
        <mxCell id="M0PuQdPBtQ2sDzGUFWcR-3" value="统一网关&lt;br&gt;STGW" style="rounded=0;whiteSpace=wrap;html=1;" vertex="1" parent="M0PuQdPBtQ2sDzGUFWcR-45">
          <mxGeometry x="120" width="120" height="40" as="geometry" />
        </mxCell>
        <mxCell id="M0PuQdPBtQ2sDzGUFWcR-5" value="路由服务SDK" style="rounded=0;whiteSpace=wrap;html=1;" vertex="1" parent="M0PuQdPBtQ2sDzGUFWcR-45">
          <mxGeometry x="20" y="250" width="120" height="20" as="geometry" />
        </mxCell>
        <mxCell id="M0PuQdPBtQ2sDzGUFWcR-6" value="业务逻辑层&lt;br&gt;trpc-cpp&lt;br&gt;&lt;br&gt;" style="rounded=0;whiteSpace=wrap;html=1;" vertex="1" parent="M0PuQdPBtQ2sDzGUFWcR-45">
          <mxGeometry x="188" y="210" width="120" height="60" as="geometry" />
        </mxCell>
        <mxCell id="M0PuQdPBtQ2sDzGUFWcR-7" value="服务治理SDK" style="rounded=0;whiteSpace=wrap;html=1;fillColor=#dae8fc;strokeColor=#6c8ebf;" vertex="1" parent="M0PuQdPBtQ2sDzGUFWcR-45">
          <mxGeometry x="188" y="250" width="120" height="20" as="geometry" />
        </mxCell>
        <mxCell id="M0PuQdPBtQ2sDzGUFWcR-8" value="服务治理SDK" style="rounded=0;whiteSpace=wrap;html=1;fillColor=#dae8fc;strokeColor=#6c8ebf;" vertex="1" parent="M0PuQdPBtQ2sDzGUFWcR-45">
          <mxGeometry x="20" y="250" width="120" height="20" as="geometry" />
        </mxCell>
        <mxCell id="M0PuQdPBtQ2sDzGUFWcR-9" value="商户代理层" style="rounded=0;whiteSpace=wrap;html=1;" vertex="1" parent="M0PuQdPBtQ2sDzGUFWcR-45">
          <mxGeometry x="110" y="330" width="120" height="40" as="geometry" />
        </mxCell>
        <mxCell id="M0PuQdPBtQ2sDzGUFWcR-11" value="外部商户1...N" style="rounded=0;whiteSpace=wrap;html=1;" vertex="1" parent="M0PuQdPBtQ2sDzGUFWcR-45">
          <mxGeometry x="110" y="410" width="120" height="40" as="geometry" />
        </mxCell>
        <mxCell id="M0PuQdPBtQ2sDzGUFWcR-16" value="" style="endArrow=classic;html=1;rounded=0;exitX=0.5;exitY=1;exitDx=0;exitDy=0;entryX=0.5;entryY=0;entryDx=0;entryDy=0;" edge="1" parent="M0PuQdPBtQ2sDzGUFWcR-45" source="M0PuQdPBtQ2sDzGUFWcR-9" target="M0PuQdPBtQ2sDzGUFWcR-11">
          <mxGeometry width="50" height="50" relative="1" as="geometry">
            <mxPoint x="240" y="590" as="sourcePoint" />
            <mxPoint x="290" y="540" as="targetPoint" />
          </mxGeometry>
        </mxCell>
        <mxCell id="M0PuQdPBtQ2sDzGUFWcR-18" value="Web接入层&lt;br&gt;trpc-cpp&lt;br&gt;&lt;br&gt;" style="rounded=0;whiteSpace=wrap;html=1;" vertex="1" parent="M0PuQdPBtQ2sDzGUFWcR-45">
          <mxGeometry x="120" y="80" width="120" height="60" as="geometry" />
        </mxCell>
        <mxCell id="M0PuQdPBtQ2sDzGUFWcR-19" value="服务治理SDK" style="rounded=0;whiteSpace=wrap;html=1;fillColor=#dae8fc;strokeColor=#6c8ebf;" vertex="1" parent="M0PuQdPBtQ2sDzGUFWcR-45">
          <mxGeometry x="120" y="120" width="120" height="20" as="geometry" />
        </mxCell>
        <mxCell id="M0PuQdPBtQ2sDzGUFWcR-20" value="" style="endArrow=classic;html=1;rounded=0;exitX=0.5;exitY=1;exitDx=0;exitDy=0;" edge="1" parent="M0PuQdPBtQ2sDzGUFWcR-45" source="M0PuQdPBtQ2sDzGUFWcR-19" target="M0PuQdPBtQ2sDzGUFWcR-2">
          <mxGeometry width="50" height="50" relative="1" as="geometry">
            <mxPoint x="75.38" y="130" as="sourcePoint" />
            <mxPoint x="75.38" y="190" as="targetPoint" />
          </mxGeometry>
        </mxCell>
        <mxCell id="M0PuQdPBtQ2sDzGUFWcR-21" value="" style="endArrow=classic;html=1;rounded=0;entryX=0.5;entryY=0;entryDx=0;entryDy=0;exitX=0.5;exitY=1;exitDx=0;exitDy=0;" edge="1" parent="M0PuQdPBtQ2sDzGUFWcR-45" source="M0PuQdPBtQ2sDzGUFWcR-19" target="M0PuQdPBtQ2sDzGUFWcR-6">
          <mxGeometry width="50" height="50" relative="1" as="geometry">
            <mxPoint x="248" y="130" as="sourcePoint" />
            <mxPoint x="243.37999999999977" y="190" as="targetPoint" />
          </mxGeometry>
        </mxCell>
        <mxCell id="M0PuQdPBtQ2sDzGUFWcR-23" value="" style="endArrow=classic;html=1;rounded=0;exitX=0.5;exitY=1;exitDx=0;exitDy=0;entryX=0.5;entryY=0;entryDx=0;entryDy=0;" edge="1" parent="M0PuQdPBtQ2sDzGUFWcR-45" source="M0PuQdPBtQ2sDzGUFWcR-3" target="M0PuQdPBtQ2sDzGUFWcR-18">
          <mxGeometry width="50" height="50" relative="1" as="geometry">
            <mxPoint x="20" y="90" as="sourcePoint" />
            <mxPoint x="70" y="40" as="targetPoint" />
          </mxGeometry>
        </mxCell>
        <mxCell id="M0PuQdPBtQ2sDzGUFWcR-26" value="" style="endArrow=classic;html=1;rounded=0;exitX=0.5;exitY=1;exitDx=0;exitDy=0;entryX=0.5;entryY=0;entryDx=0;entryDy=0;" edge="1" parent="M0PuQdPBtQ2sDzGUFWcR-45" source="M0PuQdPBtQ2sDzGUFWcR-25" target="M0PuQdPBtQ2sDzGUFWcR-9">
          <mxGeometry width="50" height="50" relative="1" as="geometry">
            <mxPoint x="310" y="410" as="sourcePoint" />
            <mxPoint x="360" y="360" as="targetPoint" />
          </mxGeometry>
        </mxCell>
        <mxCell id="M0PuQdPBtQ2sDzGUFWcR-43" value="SET01" style="text;html=1;strokeColor=none;fillColor=none;align=center;verticalAlign=middle;whiteSpace=wrap;rounded=0;" vertex="1" parent="M0PuQdPBtQ2sDzGUFWcR-45">
          <mxGeometry x="20" y="190" width="60" height="20" as="geometry" />
        </mxCell>
        <mxCell id="M0PuQdPBtQ2sDzGUFWcR-44" value="SET02" style="text;html=1;strokeColor=none;fillColor=none;align=center;verticalAlign=middle;whiteSpace=wrap;rounded=0;" vertex="1" parent="M0PuQdPBtQ2sDzGUFWcR-45">
          <mxGeometry x="248" y="190" width="60" height="20" as="geometry" />
        </mxCell>
        <mxCell id="M0PuQdPBtQ2sDzGUFWcR-46" value="" style="group" vertex="1" connectable="0" parent="1">
          <mxGeometry x="444" y="180" width="340" height="450" as="geometry" />
        </mxCell>
        <mxCell id="M0PuQdPBtQ2sDzGUFWcR-47" value="" style="rounded=1;whiteSpace=wrap;html=1;" vertex="1" parent="M0PuQdPBtQ2sDzGUFWcR-46">
          <mxGeometry y="190" width="340" height="100" as="geometry" />
        </mxCell>
        <mxCell id="M0PuQdPBtQ2sDzGUFWcR-48" value="业务逻辑层&lt;br&gt;trpc-cpp&lt;br&gt;&lt;br&gt;" style="rounded=0;whiteSpace=wrap;html=1;" vertex="1" parent="M0PuQdPBtQ2sDzGUFWcR-46">
          <mxGeometry x="20" y="210" width="120" height="60" as="geometry" />
        </mxCell>
        <mxCell id="M0PuQdPBtQ2sDzGUFWcR-49" value="统一网关&lt;br&gt;STGW" style="rounded=0;whiteSpace=wrap;html=1;" vertex="1" parent="M0PuQdPBtQ2sDzGUFWcR-46">
          <mxGeometry x="120" width="120" height="40" as="geometry" />
        </mxCell>
        <mxCell id="M0PuQdPBtQ2sDzGUFWcR-50" value="路由服务SDK" style="rounded=0;whiteSpace=wrap;html=1;" vertex="1" parent="M0PuQdPBtQ2sDzGUFWcR-46">
          <mxGeometry x="20" y="250" width="120" height="20" as="geometry" />
        </mxCell>
        <mxCell id="M0PuQdPBtQ2sDzGUFWcR-51" value="业务逻辑层&lt;br&gt;trpc-cpp&lt;br&gt;&lt;br&gt;" style="rounded=0;whiteSpace=wrap;html=1;" vertex="1" parent="M0PuQdPBtQ2sDzGUFWcR-46">
          <mxGeometry x="188" y="210" width="120" height="60" as="geometry" />
        </mxCell>
        <mxCell id="M0PuQdPBtQ2sDzGUFWcR-52" value="服务治理SDK" style="rounded=0;whiteSpace=wrap;html=1;fillColor=#dae8fc;strokeColor=#6c8ebf;" vertex="1" parent="M0PuQdPBtQ2sDzGUFWcR-46">
          <mxGeometry x="188" y="250" width="120" height="20" as="geometry" />
        </mxCell>
        <mxCell id="M0PuQdPBtQ2sDzGUFWcR-53" value="服务治理SDK" style="rounded=0;whiteSpace=wrap;html=1;fillColor=#dae8fc;strokeColor=#6c8ebf;" vertex="1" parent="M0PuQdPBtQ2sDzGUFWcR-46">
          <mxGeometry x="20" y="250" width="120" height="20" as="geometry" />
        </mxCell>
        <mxCell id="M0PuQdPBtQ2sDzGUFWcR-54" value="商户代理层" style="rounded=0;whiteSpace=wrap;html=1;" vertex="1" parent="M0PuQdPBtQ2sDzGUFWcR-46">
          <mxGeometry x="110" y="330" width="120" height="40" as="geometry" />
        </mxCell>
        <mxCell id="M0PuQdPBtQ2sDzGUFWcR-55" value="外部商户1...N" style="rounded=0;whiteSpace=wrap;html=1;" vertex="1" parent="M0PuQdPBtQ2sDzGUFWcR-46">
          <mxGeometry x="110" y="410" width="120" height="40" as="geometry" />
        </mxCell>
        <mxCell id="M0PuQdPBtQ2sDzGUFWcR-56" value="" style="endArrow=classic;html=1;rounded=0;exitX=0.5;exitY=1;exitDx=0;exitDy=0;entryX=0.5;entryY=0;entryDx=0;entryDy=0;" edge="1" parent="M0PuQdPBtQ2sDzGUFWcR-46" source="M0PuQdPBtQ2sDzGUFWcR-54" target="M0PuQdPBtQ2sDzGUFWcR-55">
          <mxGeometry width="50" height="50" relative="1" as="geometry">
            <mxPoint x="240" y="590" as="sourcePoint" />
            <mxPoint x="290" y="540" as="targetPoint" />
          </mxGeometry>
        </mxCell>
        <mxCell id="M0PuQdPBtQ2sDzGUFWcR-57" value="Web接入层&lt;br&gt;trpc-cpp&lt;br&gt;&lt;br&gt;" style="rounded=0;whiteSpace=wrap;html=1;" vertex="1" parent="M0PuQdPBtQ2sDzGUFWcR-46">
          <mxGeometry x="120" y="80" width="120" height="60" as="geometry" />
        </mxCell>
        <mxCell id="M0PuQdPBtQ2sDzGUFWcR-58" value="服务治理SDK" style="rounded=0;whiteSpace=wrap;html=1;fillColor=#dae8fc;strokeColor=#6c8ebf;" vertex="1" parent="M0PuQdPBtQ2sDzGUFWcR-46">
          <mxGeometry x="120" y="120" width="120" height="20" as="geometry" />
        </mxCell>
        <mxCell id="M0PuQdPBtQ2sDzGUFWcR-59" value="" style="endArrow=classic;html=1;rounded=0;exitX=0.5;exitY=1;exitDx=0;exitDy=0;" edge="1" parent="M0PuQdPBtQ2sDzGUFWcR-46" source="M0PuQdPBtQ2sDzGUFWcR-58" target="M0PuQdPBtQ2sDzGUFWcR-48">
          <mxGeometry width="50" height="50" relative="1" as="geometry">
            <mxPoint x="75.38" y="130" as="sourcePoint" />
            <mxPoint x="75.38" y="190" as="targetPoint" />
          </mxGeometry>
        </mxCell>
        <mxCell id="M0PuQdPBtQ2sDzGUFWcR-60" value="" style="endArrow=classic;html=1;rounded=0;entryX=0.5;entryY=0;entryDx=0;entryDy=0;exitX=0.5;exitY=1;exitDx=0;exitDy=0;" edge="1" parent="M0PuQdPBtQ2sDzGUFWcR-46" source="M0PuQdPBtQ2sDzGUFWcR-58" target="M0PuQdPBtQ2sDzGUFWcR-51">
          <mxGeometry width="50" height="50" relative="1" as="geometry">
            <mxPoint x="248" y="130" as="sourcePoint" />
            <mxPoint x="243.37999999999977" y="190" as="targetPoint" />
          </mxGeometry>
        </mxCell>
        <mxCell id="M0PuQdPBtQ2sDzGUFWcR-61" value="" style="endArrow=classic;html=1;rounded=0;exitX=0.5;exitY=1;exitDx=0;exitDy=0;entryX=0.5;entryY=0;entryDx=0;entryDy=0;" edge="1" parent="M0PuQdPBtQ2sDzGUFWcR-46" source="M0PuQdPBtQ2sDzGUFWcR-49" target="M0PuQdPBtQ2sDzGUFWcR-57">
          <mxGeometry width="50" height="50" relative="1" as="geometry">
            <mxPoint x="20" y="90" as="sourcePoint" />
            <mxPoint x="70" y="40" as="targetPoint" />
          </mxGeometry>
        </mxCell>
        <mxCell id="M0PuQdPBtQ2sDzGUFWcR-62" value="" style="endArrow=classic;html=1;rounded=0;exitX=0.5;exitY=1;exitDx=0;exitDy=0;entryX=0.5;entryY=0;entryDx=0;entryDy=0;" edge="1" parent="M0PuQdPBtQ2sDzGUFWcR-46" source="M0PuQdPBtQ2sDzGUFWcR-47" target="M0PuQdPBtQ2sDzGUFWcR-54">
          <mxGeometry width="50" height="50" relative="1" as="geometry">
            <mxPoint x="310" y="410" as="sourcePoint" />
            <mxPoint x="360" y="360" as="targetPoint" />
          </mxGeometry>
        </mxCell>
        <mxCell id="M0PuQdPBtQ2sDzGUFWcR-63" value="SET51" style="text;html=1;strokeColor=none;fillColor=none;align=center;verticalAlign=middle;whiteSpace=wrap;rounded=0;" vertex="1" parent="M0PuQdPBtQ2sDzGUFWcR-46">
          <mxGeometry x="20" y="190" width="60" height="20" as="geometry" />
        </mxCell>
        <mxCell id="M0PuQdPBtQ2sDzGUFWcR-64" value="SET52" style="text;html=1;strokeColor=none;fillColor=none;align=center;verticalAlign=middle;whiteSpace=wrap;rounded=0;" vertex="1" parent="M0PuQdPBtQ2sDzGUFWcR-46">
          <mxGeometry x="248" y="190" width="60" height="20" as="geometry" />
        </mxCell>
        <mxCell id="M0PuQdPBtQ2sDzGUFWcR-67" value="" style="endArrow=classic;html=1;rounded=0;exitX=0.5;exitY=1;exitDx=0;exitDy=0;" edge="1" parent="M0PuQdPBtQ2sDzGUFWcR-46" source="M0PuQdPBtQ2sDzGUFWcR-65">
          <mxGeometry width="50" height="50" relative="1" as="geometry">
            <mxPoint x="-4" y="90" as="sourcePoint" />
            <mxPoint x="186" as="targetPoint" />
          </mxGeometry>
        </mxCell>
        <mxCell id="M0PuQdPBtQ2sDzGUFWcR-65" value="小程序" style="rounded=0;whiteSpace=wrap;html=1;" vertex="1" parent="1">
          <mxGeometry x="370" y="70" width="120" height="40" as="geometry" />
        </mxCell>
        <mxCell id="M0PuQdPBtQ2sDzGUFWcR-66" value="" style="endArrow=classic;html=1;rounded=0;entryX=0.5;entryY=0;entryDx=0;entryDy=0;exitX=0.5;exitY=1;exitDx=0;exitDy=0;" edge="1" parent="1" source="M0PuQdPBtQ2sDzGUFWcR-65" target="M0PuQdPBtQ2sDzGUFWcR-3">
          <mxGeometry width="50" height="50" relative="1" as="geometry">
            <mxPoint x="380" y="290" as="sourcePoint" />
            <mxPoint x="430" y="240" as="targetPoint" />
          </mxGeometry>
        </mxCell>
        <mxCell id="M0PuQdPBtQ2sDzGUFWcR-68" value="DNS解析&lt;br&gt;GSLB" style="rounded=0;whiteSpace=wrap;html=1;" vertex="1" parent="1">
          <mxGeometry x="10" y="70" width="120" height="40" as="geometry" />
        </mxCell>
        <mxCell id="M0PuQdPBtQ2sDzGUFWcR-70" value="" style="endArrow=classic;html=1;rounded=0;exitX=0;exitY=0.5;exitDx=0;exitDy=0;" edge="1" parent="1" source="M0PuQdPBtQ2sDzGUFWcR-65" target="M0PuQdPBtQ2sDzGUFWcR-68">
          <mxGeometry width="50" height="50" relative="1" as="geometry">
            <mxPoint x="420" y="240" as="sourcePoint" />
            <mxPoint x="470" y="190" as="targetPoint" />
          </mxGeometry>
        </mxCell>
        <mxCell id="WhbYQMbePoEcX-nvTfSz-1" value="深圳" style="text;html=1;strokeColor=none;fillColor=none;align=center;verticalAlign=middle;whiteSpace=wrap;rounded=0;fontSize=20;fontColor=#000000;fontStyle=0" vertex="1" parent="1">
          <mxGeometry x="100" y="100" width="200" height="40" as="geometry" />
        </mxCell>
        <mxCell id="WhbYQMbePoEcX-nvTfSz-2" value="上海" style="text;html=1;strokeColor=none;fillColor=none;align=center;verticalAlign=middle;whiteSpace=wrap;rounded=0;fontSize=20;fontColor=#000000;fontStyle=0" vertex="1" parent="1">
          <mxGeometry x="530" y="105" width="160" height="30" as="geometry" />
        </mxCell>
      </root>
    </mxGraphModel>
  </diagram>
  <diagram id="lgY8jj6EvS-wMzNoSNfV" name="部署图">
    <mxGraphModel dx="1730" dy="1127" grid="1" gridSize="10" guides="1" tooltips="1" connect="1" arrows="1" fold="1" page="1" pageScale="1" pageWidth="827" pageHeight="1169" math="0" shadow="0">
      <root>
        <mxCell id="0" />
        <mxCell id="1" parent="0" />
        <mxCell id="Zs38UowoLqDGT-_QNAw6-1" value="Web接入层&lt;br&gt;trpc-cpp" style="rounded=0;whiteSpace=wrap;html=1;" vertex="1" parent="1">
          <mxGeometry x="507" y="162" width="120" height="60" as="geometry" />
        </mxCell>
        <mxCell id="Zs38UowoLqDGT-_QNAw6-2" value="Web接入层&lt;br&gt;trpc-cpp" style="rounded=0;whiteSpace=wrap;html=1;" vertex="1" parent="1">
          <mxGeometry x="819" y="162" width="120" height="60" as="geometry" />
        </mxCell>
        <mxCell id="Zs38UowoLqDGT-_QNAw6-3" value="业务逻辑层&lt;br&gt;trpc-cpp" style="rounded=0;whiteSpace=wrap;html=1;" vertex="1" parent="1">
          <mxGeometry x="507" y="280" width="120" height="60" as="geometry" />
        </mxCell>
        <mxCell id="Zs38UowoLqDGT-_QNAw6-4" value="业务逻辑层&lt;br&gt;trpc-cpp" style="rounded=0;whiteSpace=wrap;html=1;" vertex="1" parent="1">
          <mxGeometry x="819" y="279" width="120" height="60" as="geometry" />
        </mxCell>
        <mxCell id="f8MhbMfrksu19w4zlSMJ-1" value="" style="endArrow=classic;html=1;rounded=0;strokeColor=#000000;strokeWidth=1;exitX=0.5;exitY=1;exitDx=0;exitDy=0;" edge="1" parent="1" source="Zs38UowoLqDGT-_QNAw6-3">
          <mxGeometry width="50" height="50" relative="1" as="geometry">
            <mxPoint x="667" y="710" as="sourcePoint" />
            <mxPoint x="567" y="430" as="targetPoint" />
          </mxGeometry>
        </mxCell>
        <mxCell id="f8MhbMfrksu19w4zlSMJ-2" value="" style="endArrow=classic;html=1;rounded=0;strokeColor=#000000;strokeWidth=1;exitX=0.5;exitY=1;exitDx=0;exitDy=0;entryX=0.5;entryY=0;entryDx=0;entryDy=0;" edge="1" parent="1" source="Zs38UowoLqDGT-_QNAw6-1" target="Zs38UowoLqDGT-_QNAw6-3">
          <mxGeometry width="50" height="50" relative="1" as="geometry">
            <mxPoint x="577" y="352" as="sourcePoint" />
            <mxPoint x="577" y="422" as="targetPoint" />
          </mxGeometry>
        </mxCell>
        <mxCell id="f8MhbMfrksu19w4zlSMJ-4" value="" style="endArrow=classic;html=1;rounded=0;strokeColor=#000000;strokeWidth=1;entryX=0.5;entryY=0;entryDx=0;entryDy=0;dashed=1;" edge="1" parent="1" target="Zs38UowoLqDGT-_QNAw6-4">
          <mxGeometry width="50" height="50" relative="1" as="geometry">
            <mxPoint x="567" y="222" as="sourcePoint" />
            <mxPoint x="727" y="242" as="targetPoint" />
          </mxGeometry>
        </mxCell>
        <mxCell id="f8MhbMfrksu19w4zlSMJ-24" value="" style="endArrow=classic;html=1;rounded=0;strokeColor=#000000;strokeWidth=1;exitX=0.5;exitY=1;exitDx=0;exitDy=0;" edge="1" parent="1" source="Zs38UowoLqDGT-_QNAw6-4">
          <mxGeometry width="50" height="50" relative="1" as="geometry">
            <mxPoint x="881" y="340" as="sourcePoint" />
            <mxPoint x="879" y="430" as="targetPoint" />
          </mxGeometry>
        </mxCell>
        <mxCell id="f8MhbMfrksu19w4zlSMJ-27" value="" style="endArrow=classic;html=1;rounded=0;strokeColor=#000000;strokeWidth=1;exitX=0.5;exitY=1;exitDx=0;exitDy=0;entryX=0.5;entryY=0;entryDx=0;entryDy=0;" edge="1" parent="1" source="Zs38UowoLqDGT-_QNAw6-2" target="Zs38UowoLqDGT-_QNAw6-4">
          <mxGeometry width="50" height="50" relative="1" as="geometry">
            <mxPoint x="1065" y="372" as="sourcePoint" />
            <mxPoint x="1115" y="322" as="targetPoint" />
          </mxGeometry>
        </mxCell>
        <mxCell id="WwrPOSsWCXTmyzIuu2Uo-1" value="" style="group" vertex="1" connectable="0" parent="1">
          <mxGeometry x="10" y="440" width="290" height="400" as="geometry" />
        </mxCell>
        <mxCell id="fx46ViOvR5zKHXaJ0Wgr-23" value="" style="rounded=1;whiteSpace=wrap;html=1;fontSize=20;" vertex="1" parent="WwrPOSsWCXTmyzIuu2Uo-1">
          <mxGeometry width="290" height="400" as="geometry" />
        </mxCell>
        <mxCell id="fx46ViOvR5zKHXaJ0Wgr-18" value="乘车码账务系统" style="rounded=1;whiteSpace=wrap;html=1;fontSize=20;" vertex="1" parent="WwrPOSsWCXTmyzIuu2Uo-1">
          <mxGeometry x="40" y="40.00230769230768" width="200" height="76.15384615384616" as="geometry" />
        </mxCell>
        <mxCell id="fx46ViOvR5zKHXaJ0Wgr-20" value="乘车码运营系统" style="rounded=1;whiteSpace=wrap;html=1;fontSize=20;" vertex="1" parent="WwrPOSsWCXTmyzIuu2Uo-1">
          <mxGeometry x="40" y="151.92230769230775" width="200" height="76.15384615384616" as="geometry" />
        </mxCell>
        <mxCell id="fx46ViOvR5zKHXaJ0Wgr-21" value="乘车码出行系统" style="rounded=1;whiteSpace=wrap;html=1;fontSize=20;" vertex="1" parent="WwrPOSsWCXTmyzIuu2Uo-1">
          <mxGeometry x="40" y="280.00230769230757" width="200" height="76.15384615384616" as="geometry" />
        </mxCell>
        <mxCell id="WwrPOSsWCXTmyzIuu2Uo-19" value="" style="group" vertex="1" connectable="0" parent="1">
          <mxGeometry x="455.5" y="850" width="1103" height="230" as="geometry" />
        </mxCell>
        <mxCell id="WwrPOSsWCXTmyzIuu2Uo-17" value="" style="rounded=1;whiteSpace=wrap;html=1;fontSize=20;" vertex="1" parent="WwrPOSsWCXTmyzIuu2Uo-19">
          <mxGeometry width="1103" height="230" as="geometry" />
        </mxCell>
        <mxCell id="WwrPOSsWCXTmyzIuu2Uo-2" value="用户DB&lt;br&gt;（异步备)" style="shape=cylinder3;whiteSpace=wrap;html=1;boundedLbl=1;backgroundOutline=1;size=15;container=0;" vertex="1" parent="WwrPOSsWCXTmyzIuu2Uo-19">
          <mxGeometry x="434" y="140" width="100" height="60" as="geometry" />
        </mxCell>
        <mxCell id="WwrPOSsWCXTmyzIuu2Uo-3" value="用户DB&lt;br&gt;（异步备)" style="shape=cylinder3;whiteSpace=wrap;html=1;boundedLbl=1;backgroundOutline=1;size=15;container=0;" vertex="1" parent="WwrPOSsWCXTmyzIuu2Uo-19">
          <mxGeometry x="334" y="140" width="100" height="60" as="geometry" />
        </mxCell>
        <mxCell id="WwrPOSsWCXTmyzIuu2Uo-4" value="用户DB&lt;br&gt;主" style="shape=cylinder3;whiteSpace=wrap;html=1;boundedLbl=1;backgroundOutline=1;size=15;container=0;" vertex="1" parent="WwrPOSsWCXTmyzIuu2Uo-19">
          <mxGeometry x="70" y="30" width="100" height="60" as="geometry" />
        </mxCell>
        <mxCell id="WwrPOSsWCXTmyzIuu2Uo-5" value="用户DB&lt;br&gt;(单同步备)" style="shape=cylinder3;whiteSpace=wrap;html=1;boundedLbl=1;backgroundOutline=1;size=15;container=0;" vertex="1" parent="WwrPOSsWCXTmyzIuu2Uo-19">
          <mxGeometry x="70" y="140" width="100" height="60" as="geometry" />
        </mxCell>
        <mxCell id="WwrPOSsWCXTmyzIuu2Uo-6" value="" style="endArrow=classic;html=1;rounded=0;exitX=0.5;exitY=1;exitDx=0;exitDy=0;exitPerimeter=0;entryX=0.5;entryY=0;entryDx=0;entryDy=0;entryPerimeter=0;" edge="1" parent="WwrPOSsWCXTmyzIuu2Uo-19" source="WwrPOSsWCXTmyzIuu2Uo-4" target="WwrPOSsWCXTmyzIuu2Uo-5">
          <mxGeometry width="50" height="50" relative="1" as="geometry">
            <mxPoint x="-290" y="-190" as="sourcePoint" />
            <mxPoint x="-240" y="-240" as="targetPoint" />
          </mxGeometry>
        </mxCell>
        <mxCell id="WwrPOSsWCXTmyzIuu2Uo-7" value="用户DB&lt;br&gt;（异步备)" style="shape=cylinder3;whiteSpace=wrap;html=1;boundedLbl=1;backgroundOutline=1;size=15;container=0;" vertex="1" parent="WwrPOSsWCXTmyzIuu2Uo-19">
          <mxGeometry x="720" y="130" width="100" height="60" as="geometry" />
        </mxCell>
        <mxCell id="WwrPOSsWCXTmyzIuu2Uo-8" value="用户DB&lt;br&gt;异步备)" style="shape=cylinder3;whiteSpace=wrap;html=1;boundedLbl=1;backgroundOutline=1;size=15;container=0;" vertex="1" parent="WwrPOSsWCXTmyzIuu2Uo-19">
          <mxGeometry x="620" y="130" width="100" height="60" as="geometry" />
        </mxCell>
        <mxCell id="WwrPOSsWCXTmyzIuu2Uo-9" value="" style="edgeStyle=segmentEdgeStyle;endArrow=classic;html=1;rounded=0;exitX=1;exitY=0;exitDx=0;exitDy=37.5;exitPerimeter=0;entryX=0.5;entryY=0;entryDx=0;entryDy=0;entryPerimeter=0;dashed=1;" edge="1" parent="WwrPOSsWCXTmyzIuu2Uo-19" source="WwrPOSsWCXTmyzIuu2Uo-4" target="WwrPOSsWCXTmyzIuu2Uo-3">
          <mxGeometry width="50" height="50" relative="1" as="geometry">
            <mxPoint x="-120" y="-380" as="sourcePoint" />
            <mxPoint x="-70" y="-430" as="targetPoint" />
          </mxGeometry>
        </mxCell>
        <mxCell id="WwrPOSsWCXTmyzIuu2Uo-10" value="" style="edgeStyle=segmentEdgeStyle;endArrow=classic;html=1;rounded=0;exitX=1;exitY=0;exitDx=0;exitDy=37.5;exitPerimeter=0;entryX=0.5;entryY=0;entryDx=0;entryDy=0;entryPerimeter=0;dashed=1;" edge="1" parent="WwrPOSsWCXTmyzIuu2Uo-19" source="WwrPOSsWCXTmyzIuu2Uo-4" target="WwrPOSsWCXTmyzIuu2Uo-2">
          <mxGeometry width="50" height="50" relative="1" as="geometry">
            <mxPoint x="-270" y="-352.5" as="sourcePoint" />
            <mxPoint x="-80" y="-280" as="targetPoint" />
          </mxGeometry>
        </mxCell>
        <mxCell id="WwrPOSsWCXTmyzIuu2Uo-11" value="" style="edgeStyle=segmentEdgeStyle;endArrow=classic;html=1;rounded=0;dashed=1;exitX=1;exitY=0.5;exitDx=0;exitDy=0;exitPerimeter=0;" edge="1" parent="WwrPOSsWCXTmyzIuu2Uo-19" source="WwrPOSsWCXTmyzIuu2Uo-4" target="WwrPOSsWCXTmyzIuu2Uo-8">
          <mxGeometry width="50" height="50" relative="1" as="geometry">
            <mxPoint x="-280" y="-380" as="sourcePoint" />
            <mxPoint x="260" y="-297.5" as="targetPoint" />
          </mxGeometry>
        </mxCell>
        <mxCell id="WwrPOSsWCXTmyzIuu2Uo-12" value="" style="edgeStyle=segmentEdgeStyle;endArrow=classic;html=1;rounded=0;exitX=1;exitY=0.5;exitDx=0;exitDy=0;exitPerimeter=0;dashed=1;entryX=0.5;entryY=0;entryDx=0;entryDy=0;entryPerimeter=0;" edge="1" parent="WwrPOSsWCXTmyzIuu2Uo-19" source="WwrPOSsWCXTmyzIuu2Uo-4" target="WwrPOSsWCXTmyzIuu2Uo-7">
          <mxGeometry width="50" height="50" relative="1" as="geometry">
            <mxPoint x="70" y="-370" as="sourcePoint" />
            <mxPoint x="390" y="-297.5" as="targetPoint" />
            <Array as="points">
              <mxPoint x="770" y="60" />
            </Array>
          </mxGeometry>
        </mxCell>
        <mxCell id="WwrPOSsWCXTmyzIuu2Uo-13" value="用户DB&lt;br&gt;（异步备)" style="shape=cylinder3;whiteSpace=wrap;html=1;boundedLbl=1;backgroundOutline=1;size=15;container=0;" vertex="1" parent="WwrPOSsWCXTmyzIuu2Uo-19">
          <mxGeometry x="993" y="130" width="100" height="60" as="geometry" />
        </mxCell>
        <mxCell id="WwrPOSsWCXTmyzIuu2Uo-14" value="用户DB&lt;br&gt;（异步备)" style="shape=cylinder3;whiteSpace=wrap;html=1;boundedLbl=1;backgroundOutline=1;size=15;container=0;" vertex="1" parent="WwrPOSsWCXTmyzIuu2Uo-19">
          <mxGeometry x="893" y="130" width="100" height="60" as="geometry" />
        </mxCell>
        <mxCell id="WwrPOSsWCXTmyzIuu2Uo-15" value="" style="edgeStyle=segmentEdgeStyle;endArrow=classic;html=1;rounded=0;entryX=0.5;entryY=0;entryDx=0;entryDy=0;entryPerimeter=0;dashed=1;" edge="1" parent="WwrPOSsWCXTmyzIuu2Uo-19" target="WwrPOSsWCXTmyzIuu2Uo-13">
          <mxGeometry width="50" height="50" relative="1" as="geometry">
            <mxPoint x="173" y="50" as="sourcePoint" />
            <mxPoint x="394" y="150" as="targetPoint" />
          </mxGeometry>
        </mxCell>
        <mxCell id="WwrPOSsWCXTmyzIuu2Uo-16" value="" style="edgeStyle=segmentEdgeStyle;endArrow=classic;html=1;rounded=0;entryX=0.5;entryY=0;entryDx=0;entryDy=0;entryPerimeter=0;dashed=1;" edge="1" parent="WwrPOSsWCXTmyzIuu2Uo-19" target="WwrPOSsWCXTmyzIuu2Uo-14">
          <mxGeometry width="50" height="50" relative="1" as="geometry">
            <mxPoint x="173" y="50" as="sourcePoint" />
            <mxPoint x="494" y="150" as="targetPoint" />
          </mxGeometry>
        </mxCell>
        <mxCell id="WwrPOSsWCXTmyzIuu2Uo-25" value="用户DB" style="text;html=1;strokeColor=none;fillColor=none;align=center;verticalAlign=middle;whiteSpace=wrap;rounded=0;fontSize=20;" vertex="1" parent="WwrPOSsWCXTmyzIuu2Uo-19">
          <mxGeometry y="5" width="93" height="30" as="geometry" />
        </mxCell>
        <mxCell id="WwrPOSsWCXTmyzIuu2Uo-23" value="" style="group" vertex="1" connectable="0" parent="1">
          <mxGeometry x="457" y="430" width="1100" height="400" as="geometry" />
        </mxCell>
        <mxCell id="f8MhbMfrksu19w4zlSMJ-23" value="" style="rounded=1;whiteSpace=wrap;html=1;movable=0;resizable=0;rotatable=0;deletable=0;editable=0;connectable=0;" vertex="1" parent="WwrPOSsWCXTmyzIuu2Uo-23">
          <mxGeometry width="1100" height="400" as="geometry" />
        </mxCell>
        <mxCell id="f8MhbMfrksu19w4zlSMJ-6" value="卡DB-Set02&lt;br&gt;（异步备)" style="shape=cylinder3;whiteSpace=wrap;html=1;boundedLbl=1;backgroundOutline=1;size=15;container=0;" vertex="1" parent="WwrPOSsWCXTmyzIuu2Uo-23">
          <mxGeometry x="120" y="320" width="100" height="60" as="geometry" />
        </mxCell>
        <mxCell id="f8MhbMfrksu19w4zlSMJ-7" value="卡DB-Set02&lt;br&gt;（异步备)" style="shape=cylinder3;whiteSpace=wrap;html=1;boundedLbl=1;backgroundOutline=1;size=15;container=0;" vertex="1" parent="WwrPOSsWCXTmyzIuu2Uo-23">
          <mxGeometry x="20" y="320" width="100" height="60" as="geometry" />
        </mxCell>
        <mxCell id="f8MhbMfrksu19w4zlSMJ-14" value="" style="edgeStyle=segmentEdgeStyle;endArrow=classic;html=1;rounded=0;entryX=0.5;entryY=0;entryDx=0;entryDy=0;entryPerimeter=0;dashed=1;exitX=0;exitY=0.5;exitDx=0;exitDy=0;exitPerimeter=0;" edge="1" parent="WwrPOSsWCXTmyzIuu2Uo-23" source="f8MhbMfrksu19w4zlSMJ-8" target="f8MhbMfrksu19w4zlSMJ-6">
          <mxGeometry width="50" height="50" relative="1" as="geometry">
            <mxPoint x="360" y="217" as="sourcePoint" />
            <mxPoint x="660" y="300" as="targetPoint" />
          </mxGeometry>
        </mxCell>
        <mxCell id="f8MhbMfrksu19w4zlSMJ-13" value="" style="edgeStyle=segmentEdgeStyle;endArrow=classic;html=1;rounded=0;entryX=0.5;entryY=0;entryDx=0;entryDy=0;entryPerimeter=0;dashed=1;exitX=0;exitY=0.5;exitDx=0;exitDy=0;exitPerimeter=0;" edge="1" parent="WwrPOSsWCXTmyzIuu2Uo-23" source="f8MhbMfrksu19w4zlSMJ-8" target="f8MhbMfrksu19w4zlSMJ-7">
          <mxGeometry width="50" height="50" relative="1" as="geometry">
            <mxPoint x="360" y="217" as="sourcePoint" />
            <mxPoint x="670" y="150" as="targetPoint" />
          </mxGeometry>
        </mxCell>
        <mxCell id="f8MhbMfrksu19w4zlSMJ-8" value="卡DB-Set02&lt;br&gt;主" style="shape=cylinder3;whiteSpace=wrap;html=1;boundedLbl=1;backgroundOutline=1;size=15;container=0;" vertex="1" parent="WwrPOSsWCXTmyzIuu2Uo-23">
          <mxGeometry x="374" y="220" width="100" height="60" as="geometry" />
        </mxCell>
        <mxCell id="f8MhbMfrksu19w4zlSMJ-9" value="卡DB-Set02&lt;br&gt;(单同步备)" style="shape=cylinder3;whiteSpace=wrap;html=1;boundedLbl=1;backgroundOutline=1;size=15;container=0;" vertex="1" parent="WwrPOSsWCXTmyzIuu2Uo-23">
          <mxGeometry x="374" y="330" width="100" height="60" as="geometry" />
        </mxCell>
        <mxCell id="f8MhbMfrksu19w4zlSMJ-10" value="" style="endArrow=classic;html=1;rounded=0;exitX=0.5;exitY=1;exitDx=0;exitDy=0;exitPerimeter=0;entryX=0.5;entryY=0;entryDx=0;entryDy=0;entryPerimeter=0;" edge="1" parent="WwrPOSsWCXTmyzIuu2Uo-23" source="f8MhbMfrksu19w4zlSMJ-8" target="f8MhbMfrksu19w4zlSMJ-9">
          <mxGeometry width="50" height="50" relative="1" as="geometry">
            <mxPoint x="444" y="430" as="sourcePoint" />
            <mxPoint x="494" y="380" as="targetPoint" />
          </mxGeometry>
        </mxCell>
        <mxCell id="f8MhbMfrksu19w4zlSMJ-11" value="卡DB-Set02&lt;br&gt;（异步备)" style="shape=cylinder3;whiteSpace=wrap;html=1;boundedLbl=1;backgroundOutline=1;size=15;container=0;" vertex="1" parent="WwrPOSsWCXTmyzIuu2Uo-23">
          <mxGeometry x="983" y="320" width="100" height="60" as="geometry" />
        </mxCell>
        <mxCell id="f8MhbMfrksu19w4zlSMJ-12" value="卡DB-Set02&lt;br&gt;（异步备)" style="shape=cylinder3;whiteSpace=wrap;html=1;boundedLbl=1;backgroundOutline=1;size=15;container=0;" vertex="1" parent="WwrPOSsWCXTmyzIuu2Uo-23">
          <mxGeometry x="883" y="320" width="100" height="60" as="geometry" />
        </mxCell>
        <mxCell id="f8MhbMfrksu19w4zlSMJ-15" value="" style="edgeStyle=segmentEdgeStyle;endArrow=classic;html=1;rounded=0;dashed=1;exitX=1;exitY=0.5;exitDx=0;exitDy=0;exitPerimeter=0;" edge="1" parent="WwrPOSsWCXTmyzIuu2Uo-23" source="f8MhbMfrksu19w4zlSMJ-8" target="f8MhbMfrksu19w4zlSMJ-12">
          <mxGeometry width="50" height="50" relative="1" as="geometry">
            <mxPoint x="530" y="230" as="sourcePoint" />
            <mxPoint x="1070" y="312.5" as="targetPoint" />
          </mxGeometry>
        </mxCell>
        <mxCell id="f8MhbMfrksu19w4zlSMJ-16" value="" style="edgeStyle=segmentEdgeStyle;endArrow=classic;html=1;rounded=0;exitX=1;exitY=0.5;exitDx=0;exitDy=0;exitPerimeter=0;dashed=1;entryX=0.5;entryY=0;entryDx=0;entryDy=0;entryPerimeter=0;" edge="1" parent="WwrPOSsWCXTmyzIuu2Uo-23" source="f8MhbMfrksu19w4zlSMJ-8" target="f8MhbMfrksu19w4zlSMJ-11">
          <mxGeometry width="50" height="50" relative="1" as="geometry">
            <mxPoint x="880" y="240" as="sourcePoint" />
            <mxPoint x="1200" y="312.5" as="targetPoint" />
            <Array as="points">
              <mxPoint x="1033" y="250" />
            </Array>
          </mxGeometry>
        </mxCell>
        <mxCell id="Zs38UowoLqDGT-_QNAw6-19" value="卡DB-Set01&lt;br&gt;（异步备)" style="shape=cylinder3;whiteSpace=wrap;html=1;boundedLbl=1;backgroundOutline=1;size=15;container=0;" vertex="1" parent="WwrPOSsWCXTmyzIuu2Uo-23">
          <mxGeometry x="424" y="130" width="100" height="60" as="geometry" />
        </mxCell>
        <mxCell id="Zs38UowoLqDGT-_QNAw6-20" value="卡DB-Set01&lt;br&gt;（异步备)" style="shape=cylinder3;whiteSpace=wrap;html=1;boundedLbl=1;backgroundOutline=1;size=15;container=0;" vertex="1" parent="WwrPOSsWCXTmyzIuu2Uo-23">
          <mxGeometry x="324" y="130" width="100" height="60" as="geometry" />
        </mxCell>
        <mxCell id="Zs38UowoLqDGT-_QNAw6-6" value="卡DB-Set01&lt;br&gt;主" style="shape=cylinder3;whiteSpace=wrap;html=1;boundedLbl=1;backgroundOutline=1;size=15;container=0;" vertex="1" parent="WwrPOSsWCXTmyzIuu2Uo-23">
          <mxGeometry x="60" y="20" width="100" height="60" as="geometry" />
        </mxCell>
        <mxCell id="Zs38UowoLqDGT-_QNAw6-9" value="卡DB-Set01&lt;br&gt;(单同步备)" style="shape=cylinder3;whiteSpace=wrap;html=1;boundedLbl=1;backgroundOutline=1;size=15;container=0;" vertex="1" parent="WwrPOSsWCXTmyzIuu2Uo-23">
          <mxGeometry x="60" y="130" width="100" height="60" as="geometry" />
        </mxCell>
        <mxCell id="Zs38UowoLqDGT-_QNAw6-16" value="" style="endArrow=classic;html=1;rounded=0;exitX=0.5;exitY=1;exitDx=0;exitDy=0;exitPerimeter=0;entryX=0.5;entryY=0;entryDx=0;entryDy=0;entryPerimeter=0;" edge="1" parent="WwrPOSsWCXTmyzIuu2Uo-23" source="Zs38UowoLqDGT-_QNAw6-6" target="Zs38UowoLqDGT-_QNAw6-9">
          <mxGeometry width="50" height="50" relative="1" as="geometry">
            <mxPoint x="157" y="230" as="sourcePoint" />
            <mxPoint x="207" y="180" as="targetPoint" />
          </mxGeometry>
        </mxCell>
        <mxCell id="Zs38UowoLqDGT-_QNAw6-26" value="卡DB-Set01&lt;br&gt;（异步备)" style="shape=cylinder3;whiteSpace=wrap;html=1;boundedLbl=1;backgroundOutline=1;size=15;container=0;" vertex="1" parent="WwrPOSsWCXTmyzIuu2Uo-23">
          <mxGeometry x="710" y="120" width="100" height="60" as="geometry" />
        </mxCell>
        <mxCell id="Zs38UowoLqDGT-_QNAw6-27" value="卡DB-Set01&lt;br&gt;（异步备)" style="shape=cylinder3;whiteSpace=wrap;html=1;boundedLbl=1;backgroundOutline=1;size=15;container=0;" vertex="1" parent="WwrPOSsWCXTmyzIuu2Uo-23">
          <mxGeometry x="610" y="120" width="100" height="60" as="geometry" />
        </mxCell>
        <mxCell id="Zs38UowoLqDGT-_QNAw6-28" value="" style="edgeStyle=segmentEdgeStyle;endArrow=classic;html=1;rounded=0;exitX=1;exitY=0;exitDx=0;exitDy=37.5;exitPerimeter=0;entryX=0.5;entryY=0;entryDx=0;entryDy=0;entryPerimeter=0;dashed=1;" edge="1" parent="WwrPOSsWCXTmyzIuu2Uo-23" source="Zs38UowoLqDGT-_QNAw6-6" target="Zs38UowoLqDGT-_QNAw6-20">
          <mxGeometry width="50" height="50" relative="1" as="geometry">
            <mxPoint x="327" y="40" as="sourcePoint" />
            <mxPoint x="377" y="-10" as="targetPoint" />
          </mxGeometry>
        </mxCell>
        <mxCell id="Zs38UowoLqDGT-_QNAw6-29" value="" style="edgeStyle=segmentEdgeStyle;endArrow=classic;html=1;rounded=0;exitX=1;exitY=0;exitDx=0;exitDy=37.5;exitPerimeter=0;entryX=0.5;entryY=0;entryDx=0;entryDy=0;entryPerimeter=0;dashed=1;" edge="1" parent="WwrPOSsWCXTmyzIuu2Uo-23" source="Zs38UowoLqDGT-_QNAw6-6" target="Zs38UowoLqDGT-_QNAw6-19">
          <mxGeometry width="50" height="50" relative="1" as="geometry">
            <mxPoint x="177" y="67.5" as="sourcePoint" />
            <mxPoint x="367" y="140" as="targetPoint" />
          </mxGeometry>
        </mxCell>
        <mxCell id="Zs38UowoLqDGT-_QNAw6-33" value="" style="edgeStyle=segmentEdgeStyle;endArrow=classic;html=1;rounded=0;dashed=1;exitX=1;exitY=0.5;exitDx=0;exitDy=0;exitPerimeter=0;" edge="1" parent="WwrPOSsWCXTmyzIuu2Uo-23" source="Zs38UowoLqDGT-_QNAw6-6" target="Zs38UowoLqDGT-_QNAw6-27">
          <mxGeometry width="50" height="50" relative="1" as="geometry">
            <mxPoint x="167" y="40" as="sourcePoint" />
            <mxPoint x="707" y="122.5" as="targetPoint" />
          </mxGeometry>
        </mxCell>
        <mxCell id="Zs38UowoLqDGT-_QNAw6-34" value="" style="edgeStyle=segmentEdgeStyle;endArrow=classic;html=1;rounded=0;exitX=1;exitY=0.5;exitDx=0;exitDy=0;exitPerimeter=0;dashed=1;entryX=0.5;entryY=0;entryDx=0;entryDy=0;entryPerimeter=0;" edge="1" parent="WwrPOSsWCXTmyzIuu2Uo-23" source="Zs38UowoLqDGT-_QNAw6-6" target="Zs38UowoLqDGT-_QNAw6-26">
          <mxGeometry width="50" height="50" relative="1" as="geometry">
            <mxPoint x="517" y="50" as="sourcePoint" />
            <mxPoint x="837" y="122.5" as="targetPoint" />
            <Array as="points">
              <mxPoint x="760" y="50" />
            </Array>
          </mxGeometry>
        </mxCell>
        <mxCell id="f8MhbMfrksu19w4zlSMJ-25" value="" style="endArrow=none;html=1;rounded=0;strokeColor=#000000;strokeWidth=1;entryX=1;entryY=0.5;entryDx=0;entryDy=0;exitX=0;exitY=0.5;exitDx=0;exitDy=0;" edge="1" parent="WwrPOSsWCXTmyzIuu2Uo-23" source="f8MhbMfrksu19w4zlSMJ-23" target="f8MhbMfrksu19w4zlSMJ-23">
          <mxGeometry width="50" height="50" relative="1" as="geometry">
            <mxPoint x="-90" y="290" as="sourcePoint" />
            <mxPoint x="-40" y="240" as="targetPoint" />
          </mxGeometry>
        </mxCell>
        <mxCell id="WwrPOSsWCXTmyzIuu2Uo-24" value="卡DB" style="text;html=1;strokeColor=none;fillColor=none;align=center;verticalAlign=middle;whiteSpace=wrap;rounded=0;fontSize=20;" vertex="1" parent="WwrPOSsWCXTmyzIuu2Uo-23">
          <mxGeometry x="20" y="3" width="60" height="30" as="geometry" />
        </mxCell>
        <mxCell id="WwrPOSsWCXTmyzIuu2Uo-35" value="" style="endArrow=none;html=1;rounded=0;dashed=1;strokeWidth=5;strokeColor=#333333;" edge="1" parent="WwrPOSsWCXTmyzIuu2Uo-23">
          <mxGeometry width="50" height="50" relative="1" as="geometry">
            <mxPoint x="583" y="1060" as="sourcePoint" />
            <mxPoint x="583.0000000000005" y="-280" as="targetPoint" />
            <Array as="points">
              <mxPoint x="583" y="-209.2" />
            </Array>
          </mxGeometry>
        </mxCell>
        <mxCell id="WwrPOSsWCXTmyzIuu2Uo-36" value="" style="endArrow=none;html=1;rounded=0;dashed=1;strokeWidth=3;strokeColor=#666666;" edge="1" parent="WwrPOSsWCXTmyzIuu2Uo-23">
          <mxGeometry width="50" height="50" relative="1" as="geometry">
            <mxPoint x="833" y="650" as="sourcePoint" />
            <mxPoint x="833" y="-270" as="targetPoint" />
            <Array as="points">
              <mxPoint x="833" y="-219.2" />
            </Array>
          </mxGeometry>
        </mxCell>
        <mxCell id="WwrPOSsWCXTmyzIuu2Uo-38" value="" style="rounded=1;whiteSpace=wrap;html=1;fontSize=20;" vertex="1" parent="1">
          <mxGeometry x="270" y="1330" width="730" height="160" as="geometry" />
        </mxCell>
        <mxCell id="WwrPOSsWCXTmyzIuu2Uo-31" value="" style="group" vertex="1" connectable="0" parent="1">
          <mxGeometry x="290" y="1380" width="135.5" height="70" as="geometry" />
        </mxCell>
        <mxCell id="fx46ViOvR5zKHXaJ0Wgr-11" value="" style="shape=parallelogram;perimeter=parallelogramPerimeter;whiteSpace=wrap;html=1;fixedSize=1;" vertex="1" parent="WwrPOSsWCXTmyzIuu2Uo-31">
          <mxGeometry width="120" height="60" as="geometry" />
        </mxCell>
        <mxCell id="WwrPOSsWCXTmyzIuu2Uo-30" value="行业数据缓存03" style="shape=parallelogram;perimeter=parallelogramPerimeter;whiteSpace=wrap;html=1;fixedSize=1;" vertex="1" parent="WwrPOSsWCXTmyzIuu2Uo-31">
          <mxGeometry x="15.5" y="10" width="120" height="60" as="geometry" />
        </mxCell>
        <mxCell id="WwrPOSsWCXTmyzIuu2Uo-32" value="" style="group" vertex="1" connectable="0" parent="1">
          <mxGeometry x="527" y="1380" width="130" height="80" as="geometry" />
        </mxCell>
        <mxCell id="fx46ViOvR5zKHXaJ0Wgr-10" value="" style="shape=parallelogram;perimeter=parallelogramPerimeter;whiteSpace=wrap;html=1;fixedSize=1;" vertex="1" parent="WwrPOSsWCXTmyzIuu2Uo-32">
          <mxGeometry width="120" height="60" as="geometry" />
        </mxCell>
        <mxCell id="WwrPOSsWCXTmyzIuu2Uo-28" value="行业数据缓存01" style="shape=parallelogram;perimeter=parallelogramPerimeter;whiteSpace=wrap;html=1;fixedSize=1;" vertex="1" parent="WwrPOSsWCXTmyzIuu2Uo-32">
          <mxGeometry x="10" y="20" width="120" height="60" as="geometry" />
        </mxCell>
        <mxCell id="WwrPOSsWCXTmyzIuu2Uo-33" value="" style="group" vertex="1" connectable="0" parent="1">
          <mxGeometry x="841" y="1380" width="130" height="80" as="geometry" />
        </mxCell>
        <mxCell id="fx46ViOvR5zKHXaJ0Wgr-12" value="" style="shape=parallelogram;perimeter=parallelogramPerimeter;whiteSpace=wrap;html=1;fixedSize=1;" vertex="1" parent="WwrPOSsWCXTmyzIuu2Uo-33">
          <mxGeometry width="120" height="60" as="geometry" />
        </mxCell>
        <mxCell id="WwrPOSsWCXTmyzIuu2Uo-29" value="行业数据缓存02" style="shape=parallelogram;perimeter=parallelogramPerimeter;whiteSpace=wrap;html=1;fixedSize=1;" vertex="1" parent="WwrPOSsWCXTmyzIuu2Uo-33">
          <mxGeometry x="10" y="20" width="120" height="60" as="geometry" />
        </mxCell>
        <mxCell id="WwrPOSsWCXTmyzIuu2Uo-42" value="行业数据缓存:CKV" style="text;html=1;strokeColor=none;fillColor=none;align=center;verticalAlign=middle;whiteSpace=wrap;rounded=0;fontSize=20;" vertex="1" parent="1">
          <mxGeometry x="274" y="1330" width="186" height="30" as="geometry" />
        </mxCell>
        <mxCell id="WwrPOSsWCXTmyzIuu2Uo-43" value="" style="group" vertex="1" connectable="0" parent="1">
          <mxGeometry x="460" y="1120" width="540" height="160" as="geometry" />
        </mxCell>
        <mxCell id="WwrPOSsWCXTmyzIuu2Uo-37" value="" style="rounded=1;whiteSpace=wrap;html=1;fontSize=20;" vertex="1" parent="WwrPOSsWCXTmyzIuu2Uo-43">
          <mxGeometry width="540" height="160" as="geometry" />
        </mxCell>
        <mxCell id="fx46ViOvR5zKHXaJ0Wgr-14" value="" style="shape=parallelogram;perimeter=parallelogramPerimeter;whiteSpace=wrap;html=1;fixedSize=1;" vertex="1" parent="WwrPOSsWCXTmyzIuu2Uo-43">
          <mxGeometry x="40.52532833020638" y="49" width="121.57598499061913" height="60" as="geometry" />
        </mxCell>
        <mxCell id="fx46ViOvR5zKHXaJ0Wgr-15" value="" style="shape=parallelogram;perimeter=parallelogramPerimeter;whiteSpace=wrap;html=1;fixedSize=1;" vertex="1" parent="WwrPOSsWCXTmyzIuu2Uo-43">
          <mxGeometry x="358.64915572232644" y="49" width="121.57598499061913" height="60" as="geometry" />
        </mxCell>
        <mxCell id="WwrPOSsWCXTmyzIuu2Uo-26" value="通用缓存01" style="shape=parallelogram;perimeter=parallelogramPerimeter;whiteSpace=wrap;html=1;fixedSize=1;" vertex="1" parent="WwrPOSsWCXTmyzIuu2Uo-43">
          <mxGeometry x="60.78799249530957" y="69" width="121.57598499061913" height="60" as="geometry" />
        </mxCell>
        <mxCell id="WwrPOSsWCXTmyzIuu2Uo-27" value="通用缓存02" style="shape=parallelogram;perimeter=parallelogramPerimeter;whiteSpace=wrap;html=1;fixedSize=1;" vertex="1" parent="WwrPOSsWCXTmyzIuu2Uo-43">
          <mxGeometry x="378.9118198874296" y="69" width="121.57598499061913" height="60" as="geometry" />
        </mxCell>
        <mxCell id="WwrPOSsWCXTmyzIuu2Uo-41" value="通用缓存:CKV" style="text;html=1;strokeColor=none;fillColor=none;align=center;verticalAlign=middle;whiteSpace=wrap;rounded=0;fontSize=20;" vertex="1" parent="WwrPOSsWCXTmyzIuu2Uo-43">
          <mxGeometry width="141.83864915572232" height="30" as="geometry" />
        </mxCell>
        <mxCell id="f8MhbMfrksu19w4zlSMJ-29" value="" style="endArrow=none;html=1;rounded=0;dashed=1;strokeWidth=3;strokeColor=#666666;exitX=0.626;exitY=0.877;exitDx=0;exitDy=0;exitPerimeter=0;" edge="1" parent="1" source="WwrPOSsWCXTmyzIuu2Uo-38">
          <mxGeometry width="50" height="50" relative="1" as="geometry">
            <mxPoint x="727" y="1380" as="sourcePoint" />
            <mxPoint x="727" y="150" as="targetPoint" />
            <Array as="points">
              <mxPoint x="727" y="220.8" />
            </Array>
          </mxGeometry>
        </mxCell>
        <mxCell id="pWrUxKQre1w1AALh5Ie4-1" value="&lt;font style=&quot;font-size: 27px;&quot;&gt;&lt;b style=&quot;font-size: 27px;&quot;&gt;&lt;font style=&quot;font-size: 27px;&quot;&gt;数据说明&lt;/font&gt;&lt;/b&gt;&lt;span style=&quot;font-size: 27px;&quot;&gt;:&lt;/span&gt;&lt;br style=&quot;font-size: 27px;&quot;&gt;&lt;span style=&quot;font-size: 27px;&quot;&gt;&amp;nbsp; &amp;nbsp; &lt;b style=&quot;font-size: 27px;&quot;&gt;&amp;nbsp;微信openid&lt;/b&gt;&amp;nbsp; :&amp;nbsp; &amp;nbsp;wx单个应用下的用户id&lt;/span&gt;&lt;br style=&quot;font-size: 27px;&quot;&gt;&lt;span style=&quot;font-size: 27px;&quot;&gt;&amp;nbsp; &amp;nbsp; &amp;nbsp;&lt;b style=&quot;font-size: 27px;&quot;&gt;微信commid&lt;/b&gt;： wx同一平台下的用户id；一个平台可绑定多个应用&lt;br style=&quot;font-size: 27px;&quot;&gt;&amp;nbsp;&lt;br&gt;&amp;nbsp; &amp;nbsp; &amp;nbsp;&lt;b style=&quot;font-size: 27px;&quot;&gt;乘车码通卡ID&lt;/b&gt;:&amp;nbsp; 乘车码对接的不同商户(公交、地铁)&lt;br style=&quot;font-size: 27px;&quot;&gt;&amp;nbsp; &amp;nbsp; &amp;nbsp;&lt;b&gt;乘车码卡ID&amp;nbsp; &amp;nbsp;&amp;nbsp;&lt;/b&gt;:&amp;nbsp; &amp;nbsp;通卡下的用户账号ID。为每个微信用户在每个通卡下分配一个卡ID&lt;br&gt;&lt;/span&gt;&lt;br&gt;&amp;nbsp; &amp;nbsp; &amp;nbsp;&lt;br style=&quot;font-size: 27px;&quot;&gt;&lt;/font&gt;" style="text;html=1;strokeColor=none;fillColor=none;align=left;verticalAlign=top;whiteSpace=wrap;rounded=0;fontSize=27;spacingTop=0;spacing=2;spacingBottom=10;" vertex="1" parent="1">
          <mxGeometry x="1110" y="1172" width="1140" height="278" as="geometry" />
        </mxCell>
        <mxCell id="oQBgHu9uH3gnvvUGGml7-1" value="深圳" style="text;html=1;strokeColor=none;fillColor=none;align=center;verticalAlign=middle;whiteSpace=wrap;rounded=0;fontSize=36;fontColor=#000000;fontStyle=1" vertex="1" parent="1">
          <mxGeometry x="619" y="50" width="200" height="30" as="geometry" />
        </mxCell>
        <mxCell id="oQBgHu9uH3gnvvUGGml7-2" value="上海" style="text;html=1;strokeColor=none;fillColor=none;align=center;verticalAlign=middle;whiteSpace=wrap;rounded=0;fontSize=36;fontColor=#000000;fontStyle=1" vertex="1" parent="1">
          <mxGeometry x="1220" y="50" width="160" height="30" as="geometry" />
        </mxCell>
      </root>
    </mxGraphModel>
  </diagram>
  <diagram id="rj8E7zyWwBPRxDKfF8fd" name="核心模块图">
    <mxGraphModel dx="2595" dy="1690" grid="1" gridSize="10" guides="1" tooltips="1" connect="1" arrows="1" fold="1" page="1" pageScale="1" pageWidth="827" pageHeight="1169" math="0" shadow="0">
      <root>
        <mxCell id="0" />
        <mxCell id="1" parent="0" />
        <mxCell id="oKRAkwl6fG-iSfvQjHdi-14" value="" style="rounded=1;whiteSpace=wrap;html=1;fontSize=20;" vertex="1" parent="1">
          <mxGeometry x="10" y="290" width="1210" height="180" as="geometry" />
        </mxCell>
        <mxCell id="oKRAkwl6fG-iSfvQjHdi-13" value="" style="rounded=1;whiteSpace=wrap;html=1;fontSize=20;" vertex="1" parent="1">
          <mxGeometry x="10" y="130" width="1210" height="130" as="geometry" />
        </mxCell>
        <mxCell id="oKRAkwl6fG-iSfvQjHdi-2" value="开卡集成服务" style="rounded=0;whiteSpace=wrap;html=1;fontSize=20;" vertex="1" parent="1">
          <mxGeometry x="82.5" y="160" width="170" height="60" as="geometry" />
        </mxCell>
        <mxCell id="oKRAkwl6fG-iSfvQjHdi-3" value="商户开卡服务" style="rounded=0;whiteSpace=wrap;html=1;fontSize=20;" vertex="1" parent="1">
          <mxGeometry x="72.5" y="350" width="170" height="60" as="geometry" />
        </mxCell>
        <mxCell id="oKRAkwl6fG-iSfvQjHdi-4" value="拉码集成服务" style="rounded=0;whiteSpace=wrap;html=1;fontSize=20;" vertex="1" parent="1">
          <mxGeometry x="510" y="160" width="170" height="60" as="geometry" />
        </mxCell>
        <mxCell id="oKRAkwl6fG-iSfvQjHdi-5" value="商户拉码服务" style="rounded=0;whiteSpace=wrap;html=1;fontSize=20;" vertex="1" parent="1">
          <mxGeometry x="390" y="345" width="170" height="65" as="geometry" />
        </mxCell>
        <mxCell id="oKRAkwl6fG-iSfvQjHdi-6" value="用户集成服务" style="rounded=0;whiteSpace=wrap;html=1;fontSize=20;" vertex="1" parent="1">
          <mxGeometry x="980" y="160" width="170" height="60" as="geometry" />
        </mxCell>
        <mxCell id="oKRAkwl6fG-iSfvQjHdi-7" value="行业数据拉取服务" style="rounded=0;whiteSpace=wrap;html=1;fontSize=20;" vertex="1" parent="1">
          <mxGeometry x="695" y="387.5" width="170" height="60" as="geometry" />
        </mxCell>
        <mxCell id="oKRAkwl6fG-iSfvQjHdi-8" value="行业数据接收服务" style="rounded=0;whiteSpace=wrap;html=1;fontSize=20;" vertex="1" parent="1">
          <mxGeometry x="695" y="320" width="170" height="60" as="geometry" />
        </mxCell>
        <mxCell id="oKRAkwl6fG-iSfvQjHdi-26" value="设备证书服务" style="rounded=0;whiteSpace=wrap;html=1;fontSize=20;" vertex="1" parent="1">
          <mxGeometry x="990" y="310" width="170" height="60" as="geometry" />
        </mxCell>
        <mxCell id="oKRAkwl6fG-iSfvQjHdi-34" value="风控服务" style="rounded=0;whiteSpace=wrap;html=1;fontSize=20;" vertex="1" parent="1">
          <mxGeometry x="990" y="390" width="170" height="60" as="geometry" />
        </mxCell>
        <mxCell id="oKRAkwl6fG-iSfvQjHdi-46" value="" style="group" vertex="1" connectable="0" parent="1">
          <mxGeometry x="20" y="510" width="280" height="180" as="geometry" />
        </mxCell>
        <mxCell id="oKRAkwl6fG-iSfvQjHdi-21" value="" style="rounded=1;whiteSpace=wrap;html=1;fontSize=20;" vertex="1" parent="oKRAkwl6fG-iSfvQjHdi-46">
          <mxGeometry width="280" height="180" as="geometry" />
        </mxCell>
        <mxCell id="oKRAkwl6fG-iSfvQjHdi-18" value="WX开平代理服务" style="rounded=0;whiteSpace=wrap;html=1;fontSize=20;" vertex="1" parent="oKRAkwl6fG-iSfvQjHdi-46">
          <mxGeometry x="40" y="30" width="210" height="60" as="geometry" />
        </mxCell>
        <mxCell id="oKRAkwl6fG-iSfvQjHdi-19" value="WX支付代理服务" style="rounded=0;whiteSpace=wrap;html=1;fontSize=20;" vertex="1" parent="oKRAkwl6fG-iSfvQjHdi-46">
          <mxGeometry x="40" y="105" width="210" height="60" as="geometry" />
        </mxCell>
        <mxCell id="oKRAkwl6fG-iSfvQjHdi-52" value="" style="group" vertex="1" connectable="0" parent="1">
          <mxGeometry x="330" y="510" width="280" height="180" as="geometry" />
        </mxCell>
        <mxCell id="oKRAkwl6fG-iSfvQjHdi-53" value="" style="rounded=1;whiteSpace=wrap;html=1;fontSize=20;" vertex="1" parent="oKRAkwl6fG-iSfvQjHdi-52">
          <mxGeometry width="280" height="180" as="geometry" />
        </mxCell>
        <mxCell id="oKRAkwl6fG-iSfvQjHdi-56" value="商户1代理服务" style="rounded=0;whiteSpace=wrap;html=1;fontSize=20;" vertex="1" parent="oKRAkwl6fG-iSfvQjHdi-52">
          <mxGeometry x="35" y="20" width="210" height="60" as="geometry" />
        </mxCell>
        <mxCell id="oKRAkwl6fG-iSfvQjHdi-57" value="商户N代理服务" style="rounded=0;whiteSpace=wrap;html=1;fontSize=20;" vertex="1" parent="oKRAkwl6fG-iSfvQjHdi-52">
          <mxGeometry x="35" y="100" width="210" height="60" as="geometry" />
        </mxCell>
        <mxCell id="oKRAkwl6fG-iSfvQjHdi-58" value="" style="group" vertex="1" connectable="0" parent="1">
          <mxGeometry x="950" y="515" width="270" height="170" as="geometry" />
        </mxCell>
        <mxCell id="oKRAkwl6fG-iSfvQjHdi-23" value="" style="rounded=1;whiteSpace=wrap;html=1;fontSize=20;" vertex="1" parent="oKRAkwl6fG-iSfvQjHdi-58">
          <mxGeometry width="270" height="170" as="geometry" />
        </mxCell>
        <mxCell id="oKRAkwl6fG-iSfvQjHdi-16" value="用户DB写服务" style="rounded=0;whiteSpace=wrap;html=1;fontSize=20;" vertex="1" parent="oKRAkwl6fG-iSfvQjHdi-58">
          <mxGeometry x="30" y="20" width="210" height="60" as="geometry" />
        </mxCell>
        <mxCell id="oKRAkwl6fG-iSfvQjHdi-17" value="用户DB读服务" style="rounded=0;whiteSpace=wrap;html=1;fontSize=20;" vertex="1" parent="oKRAkwl6fG-iSfvQjHdi-58">
          <mxGeometry x="30" y="100" width="210" height="60" as="geometry" />
        </mxCell>
        <mxCell id="oKRAkwl6fG-iSfvQjHdi-59" value="" style="group" vertex="1" connectable="0" parent="1">
          <mxGeometry x="640" y="510" width="280" height="180" as="geometry" />
        </mxCell>
        <mxCell id="oKRAkwl6fG-iSfvQjHdi-22" value="" style="rounded=1;whiteSpace=wrap;html=1;fontSize=20;" vertex="1" parent="oKRAkwl6fG-iSfvQjHdi-59">
          <mxGeometry width="280" height="180" as="geometry" />
        </mxCell>
        <mxCell id="oKRAkwl6fG-iSfvQjHdi-10" value="卡DB写服务" style="rounded=0;whiteSpace=wrap;html=1;fontSize=20;" vertex="1" parent="oKRAkwl6fG-iSfvQjHdi-59">
          <mxGeometry x="35" y="25" width="210" height="60" as="geometry" />
        </mxCell>
        <mxCell id="oKRAkwl6fG-iSfvQjHdi-11" value="卡DB读服务" style="rounded=0;whiteSpace=wrap;html=1;fontSize=20;" vertex="1" parent="oKRAkwl6fG-iSfvQjHdi-59">
          <mxGeometry x="35" y="105" width="210" height="60" as="geometry" />
        </mxCell>
        <mxCell id="oKRAkwl6fG-iSfvQjHdi-60" value="" style="rounded=1;whiteSpace=wrap;html=1;fontSize=20;" vertex="1" parent="1">
          <mxGeometry x="1260" y="140" width="390" height="340" as="geometry" />
        </mxCell>
        <mxCell id="oKRAkwl6fG-iSfvQjHdi-61" value="商户open网关" style="rounded=0;whiteSpace=wrap;html=1;fontSize=20;" vertex="1" parent="1">
          <mxGeometry x="1280" y="170" width="170" height="60" as="geometry" />
        </mxCell>
        <mxCell id="oKRAkwl6fG-iSfvQjHdi-63" value="账务系统对接服务" style="rounded=0;whiteSpace=wrap;html=1;fontSize=20;" vertex="1" parent="1">
          <mxGeometry x="1460" y="390" width="170" height="60" as="geometry" />
        </mxCell>
        <mxCell id="oKRAkwl6fG-iSfvQjHdi-64" value="运营系统对接服务" style="rounded=0;whiteSpace=wrap;html=1;fontSize=20;" vertex="1" parent="1">
          <mxGeometry x="1460" y="310" width="170" height="60" as="geometry" />
        </mxCell>
        <mxCell id="sq-03W_H7Q4zgwiixtx5-4" value="内部API网关" style="rounded=0;whiteSpace=wrap;html=1;fontSize=20;" vertex="1" parent="1">
          <mxGeometry x="1460" y="170" width="170" height="60" as="geometry" />
        </mxCell>
        <mxCell id="sq-03W_H7Q4zgwiixtx5-5" value="商户鉴权服务" style="rounded=0;whiteSpace=wrap;html=1;fontSize=20;" vertex="1" parent="1">
          <mxGeometry x="1280" y="310" width="170" height="60" as="geometry" />
        </mxCell>
      </root>
    </mxGraphModel>
  </diagram>
  <diagram id="wN2Pl5zZOunov7lbkHqp" name="架构图-01">
    <mxGraphModel dx="1298" dy="845" grid="1" gridSize="10" guides="1" tooltips="1" connect="1" arrows="1" fold="1" page="1" pageScale="1" pageWidth="827" pageHeight="1169" math="0" shadow="0">
      <root>
        <mxCell id="0" />
        <mxCell id="1" parent="0" />
        <mxCell id="5rcpeb1_iETe7RR5VOgr-2" value="Web接入层&lt;br&gt;trpc-cpp&lt;br&gt;&lt;br&gt;" style="rounded=0;whiteSpace=wrap;html=1;" vertex="1" parent="1">
          <mxGeometry x="228" y="110" width="120" height="60" as="geometry" />
        </mxCell>
        <mxCell id="5rcpeb1_iETe7RR5VOgr-4" value="业务逻辑层&lt;br&gt;trpc-cpp&lt;br&gt;&lt;br&gt;" style="rounded=0;whiteSpace=wrap;html=1;" vertex="1" parent="1">
          <mxGeometry x="60" y="240" width="120" height="60" as="geometry" />
        </mxCell>
        <mxCell id="5rcpeb1_iETe7RR5VOgr-6" value="统一网关STGW" style="rounded=0;whiteSpace=wrap;html=1;" vertex="1" parent="1">
          <mxGeometry x="140" y="20" width="120" height="40" as="geometry" />
        </mxCell>
        <mxCell id="5rcpeb1_iETe7RR5VOgr-18" value="服务发现SDK" style="rounded=0;whiteSpace=wrap;html=1;fillColor=#dae8fc;strokeColor=#6c8ebf;" vertex="1" parent="1">
          <mxGeometry x="228" y="150" width="120" height="20" as="geometry" />
        </mxCell>
        <mxCell id="5rcpeb1_iETe7RR5VOgr-24" value="路由服务SDK" style="rounded=0;whiteSpace=wrap;html=1;" vertex="1" parent="1">
          <mxGeometry x="60" y="280" width="120" height="20" as="geometry" />
        </mxCell>
        <mxCell id="5rcpeb1_iETe7RR5VOgr-29" value="业务逻辑层&lt;br&gt;trpc-cpp&lt;br&gt;&lt;br&gt;" style="rounded=0;whiteSpace=wrap;html=1;" vertex="1" parent="1">
          <mxGeometry x="228" y="240" width="120" height="60" as="geometry" />
        </mxCell>
        <mxCell id="5rcpeb1_iETe7RR5VOgr-30" value="服务发现SDK" style="rounded=0;whiteSpace=wrap;html=1;fillColor=#dae8fc;strokeColor=#6c8ebf;" vertex="1" parent="1">
          <mxGeometry x="228" y="280" width="120" height="20" as="geometry" />
        </mxCell>
        <mxCell id="5rcpeb1_iETe7RR5VOgr-32" value="服务发现SDK" style="rounded=0;whiteSpace=wrap;html=1;fillColor=#dae8fc;strokeColor=#6c8ebf;" vertex="1" parent="1">
          <mxGeometry x="60" y="280" width="120" height="20" as="geometry" />
        </mxCell>
        <mxCell id="5rcpeb1_iETe7RR5VOgr-33" value="商户接入层" style="rounded=0;whiteSpace=wrap;html=1;" vertex="1" parent="1">
          <mxGeometry x="60" y="360" width="120" height="40" as="geometry" />
        </mxCell>
        <mxCell id="5rcpeb1_iETe7RR5VOgr-35" value="商户接入层" style="rounded=0;whiteSpace=wrap;html=1;" vertex="1" parent="1">
          <mxGeometry x="228" y="360" width="120" height="40" as="geometry" />
        </mxCell>
        <mxCell id="5rcpeb1_iETe7RR5VOgr-36" value="外部商户1...n" style="rounded=0;whiteSpace=wrap;html=1;" vertex="1" parent="1">
          <mxGeometry x="60" y="450" width="120" height="40" as="geometry" />
        </mxCell>
        <mxCell id="5rcpeb1_iETe7RR5VOgr-37" value="外部商户1...n" style="rounded=0;whiteSpace=wrap;html=1;" vertex="1" parent="1">
          <mxGeometry x="228" y="450" width="120" height="40" as="geometry" />
        </mxCell>
        <mxCell id="5rcpeb1_iETe7RR5VOgr-38" value="" style="endArrow=classic;html=1;rounded=0;exitX=0.5;exitY=1;exitDx=0;exitDy=0;entryX=0.5;entryY=0;entryDx=0;entryDy=0;" edge="1" parent="1" source="5rcpeb1_iETe7RR5VOgr-32" target="5rcpeb1_iETe7RR5VOgr-33">
          <mxGeometry width="50" height="50" relative="1" as="geometry">
            <mxPoint x="440" y="480" as="sourcePoint" />
            <mxPoint x="490" y="430" as="targetPoint" />
          </mxGeometry>
        </mxCell>
        <mxCell id="5rcpeb1_iETe7RR5VOgr-39" value="" style="endArrow=classic;html=1;rounded=0;exitX=0.5;exitY=1;exitDx=0;exitDy=0;entryX=0.5;entryY=0;entryDx=0;entryDy=0;" edge="1" parent="1" source="5rcpeb1_iETe7RR5VOgr-30" target="5rcpeb1_iETe7RR5VOgr-35">
          <mxGeometry width="50" height="50" relative="1" as="geometry">
            <mxPoint x="410" y="410" as="sourcePoint" />
            <mxPoint x="460" y="360" as="targetPoint" />
          </mxGeometry>
        </mxCell>
        <mxCell id="5rcpeb1_iETe7RR5VOgr-57" value="" style="edgeStyle=segmentEdgeStyle;endArrow=classic;html=1;rounded=0;exitX=0.5;exitY=1;exitDx=0;exitDy=0;entryX=0.5;entryY=0;entryDx=0;entryDy=0;" edge="1" parent="1" source="5rcpeb1_iETe7RR5VOgr-32" target="5rcpeb1_iETe7RR5VOgr-35">
          <mxGeometry width="50" height="50" relative="1" as="geometry">
            <mxPoint x="550" y="450" as="sourcePoint" />
            <mxPoint x="600" y="400" as="targetPoint" />
            <Array as="points">
              <mxPoint x="120" y="330" />
              <mxPoint x="288" y="330" />
            </Array>
          </mxGeometry>
        </mxCell>
        <mxCell id="5rcpeb1_iETe7RR5VOgr-58" value="" style="endArrow=classic;html=1;rounded=0;exitX=0.5;exitY=1;exitDx=0;exitDy=0;entryX=0.5;entryY=0;entryDx=0;entryDy=0;" edge="1" parent="1" source="5rcpeb1_iETe7RR5VOgr-33" target="5rcpeb1_iETe7RR5VOgr-36">
          <mxGeometry width="50" height="50" relative="1" as="geometry">
            <mxPoint x="190" y="630" as="sourcePoint" />
            <mxPoint x="240" y="580" as="targetPoint" />
          </mxGeometry>
        </mxCell>
        <mxCell id="5rcpeb1_iETe7RR5VOgr-59" value="" style="endArrow=classic;html=1;rounded=0;exitX=0.5;exitY=1;exitDx=0;exitDy=0;" edge="1" parent="1" source="5rcpeb1_iETe7RR5VOgr-35" target="5rcpeb1_iETe7RR5VOgr-37">
          <mxGeometry width="50" height="50" relative="1" as="geometry">
            <mxPoint x="400" y="620" as="sourcePoint" />
            <mxPoint x="450" y="570" as="targetPoint" />
          </mxGeometry>
        </mxCell>
        <mxCell id="5rcpeb1_iETe7RR5VOgr-60" value="Web接入层&lt;br&gt;trpc-cpp&lt;br&gt;&lt;br&gt;" style="rounded=0;whiteSpace=wrap;html=1;" vertex="1" parent="1">
          <mxGeometry x="60" y="110" width="120" height="60" as="geometry" />
        </mxCell>
        <mxCell id="5rcpeb1_iETe7RR5VOgr-61" value="服务发现SDK" style="rounded=0;whiteSpace=wrap;html=1;fillColor=#dae8fc;strokeColor=#6c8ebf;" vertex="1" parent="1">
          <mxGeometry x="60" y="150" width="120" height="20" as="geometry" />
        </mxCell>
        <mxCell id="5rcpeb1_iETe7RR5VOgr-63" value="" style="endArrow=classic;html=1;rounded=0;exitX=0.5;exitY=1;exitDx=0;exitDy=0;" edge="1" parent="1" source="5rcpeb1_iETe7RR5VOgr-61" target="5rcpeb1_iETe7RR5VOgr-4">
          <mxGeometry width="50" height="50" relative="1" as="geometry">
            <mxPoint x="115.38" y="170" as="sourcePoint" />
            <mxPoint x="115.38" y="230" as="targetPoint" />
          </mxGeometry>
        </mxCell>
        <mxCell id="5rcpeb1_iETe7RR5VOgr-64" value="" style="endArrow=classic;html=1;rounded=0;entryX=0.5;entryY=0;entryDx=0;entryDy=0;exitX=0.5;exitY=1;exitDx=0;exitDy=0;" edge="1" parent="1" source="5rcpeb1_iETe7RR5VOgr-18" target="5rcpeb1_iETe7RR5VOgr-29">
          <mxGeometry width="50" height="50" relative="1" as="geometry">
            <mxPoint x="290" y="180" as="sourcePoint" />
            <mxPoint x="283.37999999999977" y="230" as="targetPoint" />
          </mxGeometry>
        </mxCell>
        <mxCell id="5rcpeb1_iETe7RR5VOgr-65" value="" style="edgeStyle=segmentEdgeStyle;endArrow=classic;html=1;rounded=0;exitX=0.5;exitY=1;exitDx=0;exitDy=0;entryX=0.5;entryY=0;entryDx=0;entryDy=0;" edge="1" parent="1" source="5rcpeb1_iETe7RR5VOgr-61" target="5rcpeb1_iETe7RR5VOgr-29">
          <mxGeometry width="50" height="50" relative="1" as="geometry">
            <mxPoint x="115.38" y="170" as="sourcePoint" />
            <mxPoint x="283.37999999999977" y="230" as="targetPoint" />
            <Array as="points">
              <mxPoint x="120" y="200" />
              <mxPoint x="288" y="200" />
            </Array>
          </mxGeometry>
        </mxCell>
        <mxCell id="5rcpeb1_iETe7RR5VOgr-66" value="" style="endArrow=classic;html=1;rounded=0;exitX=0.5;exitY=1;exitDx=0;exitDy=0;entryX=0.5;entryY=0;entryDx=0;entryDy=0;" edge="1" parent="1" source="5rcpeb1_iETe7RR5VOgr-6" target="5rcpeb1_iETe7RR5VOgr-60">
          <mxGeometry width="50" height="50" relative="1" as="geometry">
            <mxPoint x="40" y="130" as="sourcePoint" />
            <mxPoint x="90" y="80" as="targetPoint" />
          </mxGeometry>
        </mxCell>
        <mxCell id="5rcpeb1_iETe7RR5VOgr-67" value="" style="endArrow=classic;html=1;rounded=0;exitX=0.5;exitY=1;exitDx=0;exitDy=0;entryX=0.544;entryY=-0.036;entryDx=0;entryDy=0;entryPerimeter=0;" edge="1" parent="1" source="5rcpeb1_iETe7RR5VOgr-6" target="5rcpeb1_iETe7RR5VOgr-2">
          <mxGeometry width="50" height="50" relative="1" as="geometry">
            <mxPoint x="290" y="80" as="sourcePoint" />
            <mxPoint x="340" y="30" as="targetPoint" />
          </mxGeometry>
        </mxCell>
      </root>
    </mxGraphModel>
  </diagram>
</mxfile>
